<svg width="68" height="51" viewBox="0 0 68 51" fill="none" xmlns="http://www.w3.org/2000/svg">
<g opacity="0.9">
<path d="M50.6334 39.9605C61.9431 32.9899 51.4918 19.5793 42.4121 16.0275C38.8052 14.617 36.8507 14.7392 34.3225 11.9222C32.4861 9.87628 32.9456 6.92361 30.6955 4.97173C25.7519 0.693168 16.4949 1.71948 12.1936 4.96232C7.73095 8.32069 5.98326 13.3918 9.3873 17.3869C11.8779 20.3114 16.2733 20.7453 17.704 22.4917C20.6459 26.0811 18.8525 28.2022 19.4705 31.8588C21.7353 45.2842 40.3635 46.2917 50.6334 39.9605Z" fill="#407BFF"/>
</g>
<g opacity="0.9">
<path d="M50.6334 39.9605C61.9431 32.9899 51.4918 19.5793 42.4121 16.0275C38.8052 14.617 36.8507 14.7392 34.3225 11.9222C32.4861 9.87628 32.9456 6.92361 30.6955 4.97173C25.7519 0.693168 16.4949 1.71948 12.1936 4.96232C7.73095 8.32069 5.98326 13.3918 9.3873 17.3869C11.8779 20.3114 16.2733 20.7453 17.704 22.4917C20.6459 26.0811 18.8525 28.2022 19.4705 31.8588C21.7353 45.2842 40.3635 46.2917 50.6334 39.9605Z" fill="white"/>
</g>
<path d="M33.5837 50.0477C47.9686 50.0477 59.6298 49.3669 59.6298 48.5271C59.6298 47.6872 47.9686 47.0064 33.5837 47.0064C19.1988 47.0064 7.53752 47.6872 7.53752 48.5271C7.53752 49.3669 19.1988 50.0477 33.5837 50.0477Z" fill="#F5F5F5"/>
<path d="M50.4821 39.3166C51.8804 38.7374 52.5444 37.1344 51.9652 35.7361C51.386 34.3378 49.783 33.6738 48.3847 34.253C46.9864 34.8322 46.3224 36.4352 46.9016 37.8335C47.4808 39.2318 49.0838 39.8958 50.4821 39.3166Z" fill="#407BFF"/>
<path opacity="0.2" d="M52.1729 36.7835C52.1733 37.2335 52.0629 37.6767 51.8514 38.0739C51.64 38.4712 51.3339 38.8102 50.9603 39.0611C50.5868 39.312 50.1572 39.467 49.7095 39.5125C49.2617 39.558 48.8097 39.4925 48.3933 39.3219C47.9769 39.1512 47.6089 38.8807 47.3219 38.5341C47.0349 38.1875 46.8376 37.7756 46.7475 37.3347C46.6574 36.8938 46.6773 36.4375 46.8054 36.0061C46.9335 35.5747 47.1658 35.1815 47.4819 34.8612C47.7963 35.6148 48.8602 36.1683 50.1256 36.1683C50.7652 36.1788 51.3965 36.0233 51.958 35.7169C52.1002 36.0545 52.1733 36.4172 52.1729 36.7835V36.7835Z" fill="black"/>
<path d="M49.4325 34.4689C49.6669 34.4689 49.857 34.2789 49.857 34.0444C49.857 33.81 49.6669 33.6199 49.4325 33.6199C49.198 33.6199 49.008 33.81 49.008 34.0444C49.008 34.2789 49.198 34.4689 49.4325 34.4689Z" fill="#407BFF"/>
<path d="M46.3065 47.2133H52.5611C52.6162 47.2133 52.6707 47.2241 52.7215 47.2452C52.7724 47.2662 52.8186 47.2971 52.8575 47.336C52.8964 47.375 52.9273 47.4212 52.9483 47.472C52.9694 47.5229 52.9802 47.5774 52.9802 47.6324V47.9011H45.8874V47.6324C45.8874 47.5774 45.8982 47.5229 45.9193 47.472C45.9403 47.4212 45.9712 47.375 46.0101 47.336C46.049 47.2971 46.0952 47.2662 46.1461 47.2452C46.1969 47.2241 46.2515 47.2133 46.3065 47.2133Z" fill="#407BFF"/>
<path d="M52.3516 36.7849H46.5134V47.2146H52.3516V36.7849Z" fill="#407BFF"/>
<path d="M46.6141 46.5846H52.2414C52.3523 46.5849 52.4586 46.6292 52.5369 46.7078C52.6152 46.7864 52.6592 46.8928 52.6592 47.0037V47.2146H46.2004V47.0037C46.2004 46.8935 46.2438 46.7877 46.3212 46.7092C46.3987 46.6308 46.5039 46.586 46.6141 46.5846V46.5846Z" fill="#407BFF"/>
<path opacity="0.2" d="M46.6141 46.5846H52.2414C52.3523 46.5849 52.4586 46.6292 52.5369 46.7078C52.6152 46.7864 52.6592 46.8928 52.6592 47.0037V47.2146H46.2004V47.0037C46.2004 46.8935 46.2438 46.7877 46.3212 46.7092C46.3987 46.6308 46.5039 46.586 46.6141 46.5846V46.5846Z" fill="black"/>
<path opacity="0.2" d="M52.3516 36.7835H46.5134V37.3209H52.3516V36.7835Z" fill="black"/>
<path opacity="0.2" d="M47.0843 45.7114V37.92C47.0843 37.8487 47.1126 37.7804 47.163 37.73C47.2134 37.6796 47.2817 37.6513 47.353 37.6513C47.4242 37.6513 47.4926 37.6796 47.5429 37.73C47.5933 37.7804 47.6216 37.8487 47.6216 37.92V45.7114C47.6216 45.7827 47.5933 45.851 47.5429 45.9014C47.4926 45.9518 47.4242 45.9801 47.353 45.9801C47.2817 45.9801 47.2134 45.9518 47.163 45.9014C47.1126 45.851 47.0843 45.7827 47.0843 45.7114Z" fill="black"/>
<path opacity="0.2" d="M48.4706 45.7114V37.92C48.4706 37.8487 48.4989 37.7804 48.5493 37.73C48.5997 37.6796 48.668 37.6513 48.7393 37.6513C48.8106 37.6513 48.8789 37.6796 48.9293 37.73C48.9797 37.7804 49.008 37.8487 49.008 37.92V45.7114C49.008 45.7827 48.9797 45.851 48.9293 45.9014C48.8789 45.9518 48.8106 45.9801 48.7393 45.9801C48.668 45.9801 48.5997 45.9518 48.5493 45.9014C48.4989 45.851 48.4706 45.7827 48.4706 45.7114Z" fill="black"/>
<path opacity="0.2" d="M49.857 45.7114V37.92C49.857 37.8487 49.8853 37.7804 49.9357 37.73C49.986 37.6796 50.0544 37.6513 50.1256 37.6513C50.1969 37.6513 50.2652 37.6796 50.3156 37.73C50.366 37.7804 50.3943 37.8487 50.3943 37.92V45.7114C50.3943 45.7827 50.366 45.851 50.3156 45.9014C50.2652 45.9518 50.1969 45.9801 50.1256 45.9801C50.0544 45.9801 49.986 45.9518 49.9357 45.9014C49.8853 45.851 49.857 45.7827 49.857 45.7114Z" fill="black"/>
<path opacity="0.2" d="M51.2433 45.7114V37.92C51.2433 37.8487 51.2716 37.7804 51.322 37.73C51.3724 37.6796 51.4407 37.6513 51.512 37.6513C51.5832 37.6513 51.6516 37.6796 51.7019 37.73C51.7523 37.7804 51.7806 37.8487 51.7806 37.92V45.7114C51.7806 45.7827 51.7523 45.851 51.7019 45.9014C51.6516 45.9518 51.5832 45.9801 51.512 45.9801C51.4407 45.9801 51.3724 45.9518 51.322 45.9014C51.2716 45.851 51.2433 45.7827 51.2433 45.7114Z" fill="black"/>
<path d="M52.3072 37.1422H46.559C46.464 37.1418 46.373 37.1039 46.3058 37.0368C46.2386 36.9696 46.2007 36.8785 46.2004 36.7835V36.7835C46.2007 36.6886 46.2387 36.5977 46.3059 36.5308C46.3731 36.4638 46.4641 36.4262 46.559 36.4262H52.3072C52.4021 36.4262 52.4931 36.4638 52.5604 36.5308C52.6276 36.5977 52.6655 36.6886 52.6659 36.7835C52.6655 36.8785 52.6276 36.9696 52.5605 37.0368C52.4933 37.1039 52.4022 37.1418 52.3072 37.1422V37.1422Z" fill="#407BFF"/>
<path opacity="0.2" d="M50.9576 40.5074C51.1567 39.664 50.6344 38.8189 49.791 38.6199C48.9476 38.4208 48.1026 38.9431 47.9035 39.7865C47.7044 40.6299 48.2268 41.475 49.0701 41.674C49.9135 41.8731 50.7586 41.3507 50.9576 40.5074Z" fill="black"/>
<path d="M50.5417 41.0694C51.1544 40.4567 51.1544 39.4632 50.5417 38.8505C49.9289 38.2377 48.9355 38.2377 48.3227 38.8505C47.71 39.4632 47.71 40.4567 48.3227 41.0694C48.9355 41.6822 49.9289 41.6822 50.5417 41.0694Z" fill="#407BFF"/>
<path opacity="0.2" d="M49.4325 41.0621C49.9637 41.0621 50.3943 40.6315 50.3943 40.1002C50.3943 39.569 49.9637 39.1384 49.4325 39.1384C48.9013 39.1384 48.4706 39.569 48.4706 40.1002C48.4706 40.6315 48.9013 41.0621 49.4325 41.0621Z" fill="black"/>
<path d="M49.4325 40.921C49.9637 40.921 50.3943 40.4904 50.3943 39.9592C50.3943 39.428 49.9637 38.9974 49.4325 38.9974C48.9013 38.9974 48.4706 39.428 48.4706 39.9592C48.4706 40.4904 48.9013 40.921 49.4325 40.921Z" fill="#407BFF"/>
<path d="M46.5134 38.9974H45.6872V40.9036H46.5134V38.9974Z" fill="#407BFF"/>
<path opacity="0.2" d="M46.5134 38.9974H45.6872V40.9036H46.5134V38.9974Z" fill="black"/>
<path d="M46.1883 41.5094C46.0101 41.5094 45.8393 41.4387 45.7133 41.3127C45.5874 41.1867 45.5166 41.0159 45.5166 40.8377V39.0578C45.5166 38.8797 45.5874 38.7088 45.7133 38.5829C45.8393 38.4569 46.0101 38.3861 46.1883 38.3861V38.3861V41.5094Z" fill="#407BFF"/>
<path d="M45.6026 40.9036C45.4244 40.9036 45.2536 40.8328 45.1276 40.7068C45.0017 40.5809 44.9309 40.41 44.9309 40.2319V39.6637C44.9309 39.4855 45.0017 39.3147 45.1276 39.1887C45.2536 39.0628 45.4244 38.992 45.6026 38.992V38.992V40.9036Z" fill="#407BFF"/>
<path d="M52.3529 40.9036H53.1791V38.9974H52.3529V40.9036Z" fill="#407BFF"/>
<path opacity="0.2" d="M52.3529 40.9036H53.1791V38.9974H52.3529V40.9036Z" fill="black"/>
<path d="M52.678 41.5094C52.8561 41.5094 53.027 41.4387 53.1529 41.3127C53.2789 41.1867 53.3497 41.0159 53.3497 40.8377V39.0578C53.3497 38.8797 53.2789 38.7088 53.1529 38.5829C53.027 38.4569 52.8561 38.3861 52.678 38.3861V41.5094Z" fill="#407BFF"/>
<path d="M53.2637 40.9036C53.4418 40.9036 53.6127 40.8328 53.7386 40.7068C53.8646 40.5809 53.9354 40.41 53.9354 40.2319V39.6637C53.9354 39.4855 53.8646 39.3147 53.7386 39.1887C53.6127 39.0628 53.4418 38.992 53.2637 38.992V38.992V40.9036Z" fill="#407BFF"/>
<path d="M21.8213 19.4557H20.2993V20.2402H21.8213V19.4557Z" fill="#407BFF"/>
<path opacity="0.2" d="M21.8213 19.4557H20.2993V20.2402H21.8213V19.4557Z" fill="black"/>
<path d="M22.2539 2.92581H21.3888V47.9064H22.2539V2.92581Z" fill="#407BFF"/>
<path opacity="0.2" d="M22.2539 2.92581H21.3888V5.34384H22.2539V2.92581Z" fill="black"/>
<path d="M29.5703 0.814677L13.9907 1.13014L14.0699 5.03982L29.6495 4.72436L29.5703 0.814677Z" fill="#407BFF"/>
<path d="M29.3745 4.45787L29.3062 1.08542L14.2638 1.39001L14.3321 4.76246L29.3745 4.45787Z" fill="white"/>
<path d="M19.1199 7.64902H15.4189C14.5286 7.64902 13.8069 8.37074 13.8069 9.26103V21.3149C13.8069 22.2052 14.5286 22.9269 15.4189 22.9269H19.1199C20.0101 22.9269 20.7319 22.2052 20.7319 21.3149V9.26103C20.7319 8.37074 20.0101 7.64902 19.1199 7.64902Z" fill="#407BFF"/>
<path opacity="0.2" d="M17.2701 13.2105L13.8069 15.0106V11.5488L17.2701 9.74867V13.2105Z" fill="black"/>
<path opacity="0.2" d="M17.2701 17.0189L13.8069 18.8176V15.3558L17.2701 13.5571V17.0189Z" fill="black"/>
<path opacity="0.2" d="M13.8069 19.1642V21.3135C13.8069 21.7176 13.9595 22.1067 14.2341 22.403L17.2687 20.8219V17.3654L13.8069 19.1642Z" fill="black"/>
<path d="M17.2687 13.2118C18.225 13.2118 19.0003 12.4366 19.0003 11.4802C19.0003 10.5239 18.225 9.74867 17.2687 9.74867C16.3124 9.74867 15.5371 10.5239 15.5371 11.4802C15.5371 12.4366 16.3124 13.2118 17.2687 13.2118Z" fill="white"/>
<path d="M18.9801 15.5672C19.1333 14.6232 18.4923 13.7338 17.5483 13.5806C16.6044 13.4273 15.7149 14.0684 15.5617 15.0123C15.4084 15.9563 16.0495 16.8457 16.9934 16.999C17.9374 17.1522 18.8269 16.5112 18.9801 15.5672Z" fill="#263238"/>
<path d="M17.2687 20.8273C18.225 20.8273 19.0003 20.052 19.0003 19.0957C19.0003 18.1394 18.225 17.3641 17.2687 17.3641C16.3124 17.3641 15.5371 18.1394 15.5371 19.0957C15.5371 20.052 16.3124 20.8273 17.2687 20.8273Z" fill="#263238"/>
<path d="M36.4517 13.4173L36.5269 13.4845L36.5834 13.5369L36.6868 13.639C36.754 13.7062 36.8144 13.7733 36.8762 13.8432C36.9958 13.9775 37.1059 14.1239 37.2107 14.2704C37.421 14.5673 37.601 14.8846 37.748 15.2174C38.044 15.8982 38.1818 16.6372 38.151 17.3789C38.1358 17.7437 38.073 18.105 37.9643 18.4535C37.9146 18.6188 37.8582 18.7773 37.7991 18.9304C37.74 19.0836 37.6728 19.2327 37.6043 19.3764C37.4689 19.6619 37.3182 19.94 37.1529 20.2093C36.9898 20.4788 36.8104 20.7381 36.6156 20.9858L35.6632 20.5102C35.7827 19.95 35.9318 19.3818 36.0326 18.8418C36.0621 18.7074 36.0836 18.5731 36.1051 18.4388L36.136 18.2453L36.1589 18.0573C36.182 17.8314 36.1851 17.6039 36.1683 17.3775C36.1296 16.9327 36.0046 16.4997 35.8002 16.1027C35.6968 15.8983 35.5773 15.7024 35.4429 15.517C35.3757 15.423 35.3085 15.3316 35.2319 15.2483L35.1231 15.1234L35.0721 15.0656L35.0479 15.0414C35.0479 15.0414 35.0291 15.0226 35.0479 15.0334L36.4517 13.4173Z" fill="#407BFF"/>
<path opacity="0.2" d="M36.4517 13.4173L36.5269 13.4845L36.5834 13.5369L36.6868 13.639C36.754 13.7062 36.8144 13.7733 36.8762 13.8432C36.9958 13.9775 37.1059 14.1239 37.2107 14.2704C37.421 14.5673 37.601 14.8846 37.748 15.2174C38.044 15.8982 38.1818 16.6372 38.151 17.3789C38.1358 17.7437 38.073 18.105 37.9643 18.4535C37.9146 18.6188 37.8582 18.7773 37.7991 18.9304C37.74 19.0836 37.6728 19.2327 37.6043 19.3764C37.4689 19.6619 37.3182 19.94 37.1529 20.2093C36.9898 20.4788 36.8104 20.7381 36.6156 20.9858L35.6632 20.5102C35.7827 19.95 35.9318 19.3818 36.0326 18.8418C36.0621 18.7074 36.0836 18.5731 36.1051 18.4388L36.136 18.2453L36.1589 18.0573C36.182 17.8314 36.1851 17.6039 36.1683 17.3775C36.1296 16.9327 36.0046 16.4997 35.8002 16.1027C35.6968 15.8983 35.5773 15.7024 35.4429 15.517C35.3757 15.423 35.3085 15.3316 35.2319 15.2483L35.1231 15.1234L35.0721 15.0656L35.0479 15.0414C35.0479 15.0414 35.0291 15.0226 35.0479 15.0334L36.4517 13.4173Z" fill="black"/>
<path d="M32.3948 19.4315C32.0791 21.018 31.1482 21.2544 30.099 21.0435C29.0499 20.8326 28.2815 20.2577 28.5972 18.6712C28.9129 17.0847 30.1957 15.0912 31.2449 15.3007C32.2941 15.5103 32.7118 17.8464 32.3948 19.4315Z" fill="#263238"/>
<path d="M36.1696 13.0802C36.1696 13.0802 37.3612 16.1296 36.2301 21.8119H30.8285C30.7908 20.9831 31.3121 16.9383 30.5128 13.0318C31.11 12.917 31.7139 12.8407 32.3209 12.8034C33.0855 12.7591 33.8521 12.7591 34.6167 12.8034C35.1408 12.8548 35.66 12.9474 36.1696 13.0802V13.0802Z" fill="white"/>
<path d="M32.5479 10.2094C32.693 10.9483 32.8368 12.3024 32.3209 12.7954C32.3209 12.7954 32.8744 13.3179 33.9894 13.545C34.7403 13.1312 34.6167 12.7954 34.6167 12.7954C33.7919 12.5993 33.8107 11.9894 33.9571 11.4131L32.5479 10.2094Z" fill="#FFB573"/>
<path opacity="0.2" d="M33.1229 10.7051L33.9571 11.4171C33.9215 11.5491 33.8977 11.6839 33.8859 11.8201C33.6172 12.0753 33.139 11.4292 33.1054 11.1001C33.0877 10.9684 33.0936 10.8347 33.1229 10.7051V10.7051Z" fill="black"/>
<path d="M33.9088 8.08829C33.9088 8.08829 34.8666 7.95395 35.0291 7.9432C35.1917 7.93246 35.3529 8.50338 35.3314 8.69011C35.3099 8.87683 35.0546 8.95877 35.0627 9.13744C35.0708 9.28924 35.2212 9.43969 35.2843 9.51626C35.1809 9.59686 34.5616 9.67881 34.5616 9.67881L34.3494 9.2758C34.3494 9.2758 33.2707 8.5195 33.9088 8.08829Z" fill="#263238"/>
<path d="M34.6583 12.5737C34.6541 12.5729 34.65 12.5713 34.6464 12.5689C34.6427 12.5665 34.6396 12.5633 34.6373 12.5597C34.6349 12.5561 34.6332 12.552 34.6325 12.5477C34.6317 12.5434 34.6318 12.539 34.6328 12.5348C34.653 12.4287 34.653 12.3198 34.6328 12.2137C34.6086 12.027 34.5858 11.8658 34.9015 11.5326C35.3864 11.0087 35.1419 10.3102 35.1393 10.3035C35.1375 10.2994 35.1367 10.2951 35.1367 10.2907C35.1367 10.2863 35.1376 10.2819 35.1394 10.2779C35.1411 10.2739 35.1437 10.2703 35.1469 10.2673C35.1501 10.2643 35.1539 10.262 35.1581 10.2605C35.1621 10.2588 35.1665 10.2579 35.1709 10.2579C35.1752 10.2579 35.1796 10.2588 35.1836 10.2606C35.1876 10.2624 35.1913 10.2649 35.1943 10.2681C35.1973 10.2714 35.1996 10.2752 35.2011 10.2793C35.2763 10.4989 35.2927 10.7344 35.2487 10.9623C35.2046 11.1902 35.1016 11.4026 34.9498 11.5783C34.6624 11.8886 34.6812 12.0283 34.7054 12.2043C34.7262 12.318 34.7262 12.4345 34.7054 12.5482C34.7043 12.5532 34.7022 12.5579 34.6992 12.562C34.6962 12.5661 34.6923 12.5695 34.6878 12.5719C34.6833 12.5744 34.6784 12.5758 34.6733 12.5761C34.6682 12.5764 34.6631 12.5756 34.6583 12.5737V12.5737Z" fill="#263238"/>
<path d="M32.4593 9.10251C32.5211 10.1033 32.5063 10.6917 33.0114 11.2048C33.7717 11.9773 35.0063 11.5192 35.2454 10.5211C35.4603 9.62104 35.3233 8.13664 34.344 7.73901C34.1285 7.65027 33.8939 7.61806 33.6625 7.64545C33.4311 7.67284 33.2105 7.75892 33.0217 7.89552C32.8328 8.03212 32.6821 8.2147 32.5836 8.42594C32.4852 8.63719 32.4424 8.87008 32.4593 9.10251V9.10251Z" fill="#FFB573"/>
<path d="M31.789 8.34621C31.789 8.34621 32.7468 8.21188 32.908 8.19979C33.0692 8.1877 33.2331 8.76131 33.2102 8.94803C33.1874 9.13476 32.9348 9.2167 32.9415 9.39402C32.9496 9.54582 33.0987 9.69628 33.1632 9.77285C33.0598 9.85479 32.4405 9.93539 32.4405 9.93539L32.2282 9.53239C32.2282 9.53239 31.1509 8.77608 31.789 8.34621Z" fill="#263238"/>
<path d="M32.0334 9.85748C32.1089 10.0935 32.2693 10.2931 32.4835 10.4177C32.7602 10.5735 32.9456 10.329 32.9066 10.0147C32.8717 9.73255 32.6863 9.31343 32.3894 9.28656C32.0926 9.25969 31.9381 9.56329 32.0334 9.85748Z" fill="#FFB573"/>
<path d="M32.5372 9.84001C32.5419 9.86344 32.54 9.88773 32.5316 9.91011C32.5231 9.93249 32.5086 9.95205 32.4896 9.96658C32.4706 9.9811 32.448 9.99 32.4242 9.99226C32.4004 9.99452 32.3764 9.99005 32.355 9.97935C32.3336 9.96866 32.3157 9.95218 32.3032 9.93179C32.2907 9.91139 32.2843 9.88791 32.2845 9.864C32.2847 9.8401 32.2916 9.81674 32.3045 9.79658C32.3174 9.77643 32.3356 9.76029 32.3572 9.75001C32.393 9.73846 32.4319 9.74142 32.4656 9.75825C32.4992 9.77508 32.5249 9.80443 32.5372 9.84001Z" fill="#263238"/>
<path d="M32.4539 9.87225L32.3155 9.94614L32.5573 10.3196L32.6554 10.2565L32.4539 9.87225Z" fill="#263238"/>
<path d="M39.0377 46.8479C38.9033 46.4449 38.6011 44.9967 38.6011 44.9967L39.7443 44.4688C39.7443 44.4688 39.9511 45.7316 39.9296 46.5604C39.6274 46.6402 39.3296 46.7362 39.0377 46.8479V46.8479Z" fill="#407BFF"/>
<path d="M36.2301 21.8079C36.2301 21.8079 38.2451 29.8411 38.6575 32.8945C39.0847 36.0715 39.931 45.1808 39.931 45.1808L38.5366 45.5395C38.5366 45.5395 36.2663 36.7459 35.6591 33.6576C34.9982 30.2911 32.6796 21.8092 32.6796 21.8092L36.2301 21.8079Z" fill="#263238"/>
<path opacity="0.3" d="M33.8053 22.4016L33.3351 24.2407C33.7717 25.8836 34.3561 28.1109 34.8491 30.1138C34.8958 27.5049 34.5438 24.9042 33.8053 22.4016V22.4016Z" fill="black"/>
<path d="M27.3841 47.3046C27.4486 46.8882 27.8489 45.4615 27.8489 45.4615L29.1076 45.5206C29.1076 45.5206 28.7046 46.7364 28.3016 47.4618C27.9987 47.3937 27.6924 47.3413 27.3841 47.3046V47.3046Z" fill="#407BFF"/>
<path d="M34.3131 21.8079C34.3131 21.8079 33.855 30.0628 33.2263 32.9577C32.5372 36.1226 29.1076 46.0419 29.1076 46.0419L27.595 45.8323C28.44 42.2053 29.8169 36.3201 30.1957 33.2438C30.6162 29.8411 30.8285 21.8106 30.8285 21.8106L34.3131 21.8079Z" fill="#263238"/>
<g opacity="0.3">
<path d="M27.9215 45.9922L27.8247 45.9639C27.8476 45.8833 30.1756 37.7991 30.678 33.4211C31.1804 29.0432 31.2073 21.7904 31.2073 21.7179H31.308C31.308 21.7904 31.2798 29.0472 30.7774 33.4332C30.275 37.8192 27.9416 45.9116 27.9215 45.9922Z" fill="#407BFF"/>
<path d="M31.2637 22.8758L31.2516 22.7751C31.2637 22.7751 32.3841 22.6408 32.4687 21.8347L32.5694 21.8455C32.4767 22.7267 31.2758 22.8745 31.2637 22.8758Z" fill="#407BFF"/>
</g>
<path d="M33.9773 9.38193C33.9773 9.46387 34.0203 9.5297 34.074 9.5297C34.1277 9.5297 34.1694 9.46387 34.1694 9.38193C34.1694 9.29999 34.1264 9.23416 34.074 9.23416C34.0216 9.23416 33.9773 9.29999 33.9773 9.38193Z" fill="#263238"/>
<path d="M34.8975 9.38193C34.8975 9.46387 34.9404 9.5297 34.9942 9.5297C35.0479 9.5297 35.0909 9.46387 35.0909 9.38193C35.0909 9.29999 35.0479 9.23416 34.9942 9.23416C34.9404 9.23416 34.8975 9.29999 34.8975 9.38193Z" fill="#263238"/>
<path d="M34.6046 9.42224C34.7019 9.6714 34.833 9.90599 34.9942 10.1194C34.9384 10.1592 34.8747 10.1862 34.8074 10.1988C34.7401 10.2113 34.6709 10.209 34.6046 10.192V9.42224Z" fill="#ED893E"/>
<path d="M34.3682 10.4177C34.3746 10.4177 34.3807 10.4151 34.3853 10.4106C34.3898 10.406 34.3924 10.3999 34.3924 10.3935C34.3924 10.3871 34.3898 10.3809 34.3853 10.3764C34.3807 10.3718 34.3746 10.3693 34.3682 10.3693C34.2667 10.3716 34.1662 10.3499 34.0746 10.3061C33.9831 10.2622 33.9033 10.1973 33.8416 10.1167C33.8381 10.1118 33.8328 10.1083 33.8268 10.107C33.8208 10.1058 33.8146 10.1069 33.8093 10.11C33.8066 10.1117 33.8042 10.1139 33.8023 10.1165C33.8004 10.1191 33.799 10.122 33.7983 10.1251C33.7975 10.1282 33.7974 10.1315 33.7979 10.1347C33.7984 10.1378 33.7996 10.1409 33.8013 10.1436C33.867 10.2313 33.9527 10.3019 34.0514 10.3496C34.15 10.3973 34.2587 10.4206 34.3682 10.4177V10.4177Z" fill="#263238"/>
<path d="M33.6992 9.08506C33.7067 9.08506 33.7141 9.08337 33.7208 9.08012C33.7276 9.07686 33.7335 9.07212 33.7382 9.06625C33.773 9.01731 33.8189 8.97731 33.8721 8.94952C33.9253 8.92174 33.9844 8.90696 34.0444 8.9064C34.057 8.90714 34.0695 8.90292 34.079 8.89463C34.0885 8.88635 34.0945 8.87466 34.0955 8.86207C34.096 8.85578 34.0953 8.84945 34.0934 8.84345C34.0914 8.83745 34.0883 8.8319 34.0841 8.82714C34.08 8.82238 34.075 8.81849 34.0693 8.81572C34.0636 8.81296 34.0575 8.81135 34.0512 8.81102C33.9751 8.81019 33.9 8.8277 33.8322 8.86208C33.7644 8.89646 33.7059 8.94668 33.6616 9.00849C33.6577 9.01347 33.6548 9.01919 33.6531 9.0253C33.6515 9.03142 33.6511 9.0378 33.652 9.04408C33.6529 9.05035 33.655 9.05638 33.6583 9.06181C33.6615 9.06723 33.6659 9.07195 33.671 9.07566C33.679 9.08195 33.689 9.08527 33.6992 9.08506Z" fill="#263238"/>
<path d="M35.3112 9.05551C35.3178 9.05741 35.3248 9.05741 35.3314 9.05551C35.337 9.0527 35.342 9.04875 35.3461 9.04391C35.3501 9.03907 35.3531 9.03345 35.3549 9.02739C35.3567 9.02133 35.3572 9.01497 35.3563 9.00871C35.3555 9.00245 35.3534 8.99643 35.3502 8.99103C35.3141 8.9242 35.2626 8.86693 35.2 8.82395C35.1374 8.78096 35.0655 8.75351 34.9901 8.74385C34.9786 8.74479 34.9678 8.74982 34.9597 8.75804C34.9516 8.76626 34.9466 8.77712 34.9458 8.78865C34.945 8.80019 34.9484 8.81163 34.9553 8.82091C34.9622 8.83019 34.9722 8.83669 34.9834 8.83923V8.83923C35.043 8.84767 35.0997 8.87008 35.149 8.90463C35.1983 8.93918 35.2387 8.9849 35.2669 9.03804C35.2721 9.04453 35.279 9.04955 35.2867 9.05261C35.2945 9.05567 35.3029 9.05667 35.3112 9.05551V9.05551Z" fill="#263238"/>
<path d="M28.6133 47.0951L27.2955 46.8613C27.2705 46.86 27.2458 46.867 27.2253 46.8814C27.2049 46.8958 27.1898 46.9166 27.1826 46.9406L26.8642 48.0421C26.857 48.0689 26.8558 48.097 26.8608 48.1242C26.8658 48.1515 26.8768 48.1774 26.893 48.1999C26.9092 48.2224 26.9302 48.241 26.9545 48.2544C26.9788 48.2678 27.0058 48.2756 27.0335 48.2772C27.5252 48.3242 27.7885 48.3215 28.4091 48.3659C28.7906 48.3927 29.5536 48.5271 30.0829 48.5271C30.6122 48.5271 30.6807 48.0045 30.4644 47.9561C29.4932 47.7439 29.1278 47.4524 28.8175 47.173C28.7615 47.1224 28.6887 47.0946 28.6133 47.0951Z" fill="#263238"/>
<path d="M40.0317 46.0432L38.722 46.3186C38.698 46.3262 38.6774 46.3419 38.6637 46.3629C38.65 46.384 38.644 46.4091 38.6467 46.4341L38.7623 47.5746C38.7656 47.6021 38.775 47.6285 38.7898 47.6519C38.8047 47.6753 38.8245 47.6951 38.8479 47.7099C38.8713 47.7246 38.8977 47.734 38.9251 47.7374C38.9526 47.7407 38.9805 47.7379 39.0068 47.7291C39.481 47.5948 39.7241 47.4887 40.3165 47.2979C40.6806 47.181 41.6478 46.9379 42.1381 46.7404C42.6284 46.5429 42.4981 46.0325 42.2791 46.0687C41.2998 46.234 40.6416 46.1802 40.2494 46.0365C40.1785 46.0118 40.1009 46.0141 40.0317 46.0432V46.0432Z" fill="#263238"/>
<path d="M32.1839 12.6275C31.6573 12.6275 30.3878 12.6557 30.2643 13.1258C30.1407 13.596 30.2763 14.3577 30.4443 14.805C30.1971 15.4874 30.2763 16.495 30.5114 16.8093C30.2535 17.5696 30.4214 18.1298 30.5786 18.3985C30.455 18.7007 30.3435 19.5632 30.5329 19.9877C30.3771 20.5922 30.1984 21.5997 30.4779 21.8025C30.858 22.0712 31.8696 22.2055 32.5842 22.0363C33.2989 21.867 33.0181 20.4242 32.963 20.0884C33.276 19.6747 32.9402 18.4321 32.9402 18.4321C33.0974 18.0855 32.8623 16.7865 32.8623 16.7865C33.0517 16.4735 32.8059 14.7714 32.8059 14.7714C33.0074 14.4302 33.096 12.6275 32.1839 12.6275Z" fill="#407BFF"/>
<path d="M36.0487 12.9405C35.635 12.7578 34.2473 12.426 34.5173 12.7913C34.9069 13.322 34.6677 13.8808 34.8988 14.5377C34.6946 15.165 34.7645 16.19 34.9539 16.5527C34.7888 17.0785 34.8082 17.6448 35.009 18.158C34.9069 18.4267 34.8155 19.269 34.9727 19.7364C34.8384 20.306 34.7363 21.4546 34.9727 21.7138C35.1429 21.9013 35.3684 22.0296 35.6165 22.0801C35.8646 22.1306 36.1224 22.1006 36.3523 21.9946C36.6814 21.8603 36.8278 20.7614 36.6653 20.3826C36.985 19.6854 36.7244 18.6524 36.7244 18.6524C37.0334 18.115 36.7943 16.988 36.7943 16.988C37.1005 15.9885 36.7244 14.8829 36.7244 14.8829C36.8843 14.5874 36.7083 13.232 36.0487 12.9405Z" fill="#407BFF"/>
<path d="M35.1419 12.9499C35.2008 12.8896 35.247 12.8181 35.2777 12.7396C35.3083 12.6612 35.323 12.5773 35.3206 12.4931C35.3206 12.2607 35.1621 12.0042 34.9781 12.0324C34.8136 12.0509 34.657 12.1126 34.524 12.211C34.4361 12.2521 34.3615 12.3171 34.3087 12.3986C34.256 12.4801 34.2273 12.5747 34.2258 12.6718C34.2164 12.8746 34.6006 13.5839 34.8115 13.4147C35.0224 13.2454 35.0184 13.1232 35.1419 12.9499Z" fill="#407BFF"/>
<path d="M30.5128 18.2695C30.5128 18.2695 35.557 15.9133 35.51 12.7618C35.598 12.761 35.6851 12.7793 35.7653 12.8155C35.8203 12.833 36.4195 15.6083 30.5128 18.6215C30.4483 18.3595 30.5128 18.2695 30.5128 18.2695Z" fill="#263238"/>
<path opacity="0.2" d="M31.0609 14.985C30.9561 14.5323 30.6901 14.5726 30.4255 14.758L30.4443 14.8104C30.1971 15.4928 30.2763 16.5003 30.5114 16.8147C30.4967 16.8577 30.4832 16.9006 30.4711 16.949C30.8002 16.6266 31.257 15.8394 31.0609 14.985Z" fill="black"/>
<path d="M31.8279 14.5485L31.6936 14.6828L31.5472 14.8386C31.4504 14.9461 31.3551 15.0549 31.2637 15.1664C31.0831 15.3845 30.9158 15.6133 30.7626 15.8515C30.4725 16.2827 30.2749 16.7694 30.1823 17.2808C30.1643 17.3959 30.1549 17.5122 30.1541 17.6287C30.1471 17.6957 30.154 17.7634 30.1743 17.8276C30.2535 18.0703 30.3661 18.3009 30.5087 18.5127C30.8574 19.0329 31.2392 19.5301 31.6519 20.0011L31.0206 20.8581C30.6926 20.6965 30.3781 20.5087 30.0802 20.2966C29.7722 20.0828 29.4836 19.8424 29.2178 19.5779C28.9119 19.2832 28.6561 18.9406 28.4601 18.5637C28.3352 18.3209 28.2538 18.0581 28.2197 17.7873C28.1938 17.5671 28.1852 17.3452 28.1942 17.1236C28.2134 16.6954 28.2916 16.2718 28.4266 15.8649C28.5536 15.4792 28.7197 15.1074 28.9223 14.7553C29.1165 14.4164 29.338 14.0938 29.5845 13.7908C29.7054 13.6403 29.8321 13.4948 29.9647 13.3542C30.0305 13.2844 30.099 13.2199 30.1702 13.146L30.279 13.0439L30.4134 12.9284L31.8279 14.5485Z" fill="#407BFF"/>
<path opacity="0.2" d="M30.897 20.9925L30.8258 20.8783C30.8338 20.8783 31.5969 20.3853 31.5915 19.5457H31.7258C31.7285 20.4605 30.9279 20.971 30.897 20.9925Z" fill="black"/>
<path d="M32.693 12.5979C32.6843 12.5979 32.676 12.5946 32.6697 12.5886C32.6635 12.5825 32.6598 12.5743 32.6594 12.5657C32.6515 12.4581 32.6237 12.3529 32.5775 12.2554C32.505 12.0821 32.4432 11.933 32.6527 11.5299C32.9859 10.8972 32.5667 10.2874 32.5627 10.2806C32.5591 10.2735 32.5581 10.2653 32.56 10.2575C32.5618 10.2497 32.5664 10.2428 32.5729 10.2381C32.5794 10.2334 32.5873 10.2312 32.5953 10.2319C32.6033 10.2325 32.6108 10.236 32.6165 10.2417C32.746 10.4341 32.8231 10.657 32.84 10.8884C32.857 11.1198 32.8133 11.3516 32.7132 11.5608C32.5157 11.9356 32.5708 12.0659 32.6393 12.2325C32.6893 12.3365 32.7189 12.4492 32.7266 12.5643C32.727 12.5734 32.7238 12.5822 32.7178 12.589C32.7118 12.5957 32.7034 12.5999 32.6944 12.6006L32.693 12.5979Z" fill="#263238"/>
<path d="M31.7782 12.7967C31.6439 12.7712 31.6089 12.3642 31.7164 12.0942C31.8037 11.8752 32.1194 11.9047 32.4015 12.0001C32.6354 12.0695 32.8538 12.1831 33.045 12.3346C33.3298 12.5375 33.2263 12.7846 33.1605 12.9781C33.0947 13.1715 32.9698 13.6162 32.6997 13.3811C32.4297 13.146 31.9716 12.833 31.7782 12.7967Z" fill="#407BFF"/>
<path d="M31.8064 8.4295C31.7057 8.3395 31.5982 8.18367 31.7164 7.89216C31.7164 7.97142 31.8172 8.06545 31.879 8.09904C31.9408 7.85858 32.2538 7.44483 33.1323 7.2487C34.2137 7.00824 34.5818 7.43946 34.8975 7.27691C35.2131 7.11437 34.7336 6.92361 34.7336 6.92361C34.7336 6.92361 35.279 6.79734 35.4549 7.20974C35.6309 7.62215 35.4791 8.34621 34.5146 8.30054C33.5501 8.25487 33.362 8.56921 32.8757 8.4913C32.521 8.44724 32.1638 8.4266 31.8064 8.4295V8.4295Z" fill="#263238"/>
<path d="M28.1458 47.2858C28.0894 46.86 27.8543 46.2004 28.9733 46.457C29.645 46.6114 28.8954 47.4645 28.8954 47.4645L28.1458 47.2858Z" fill="#263238"/>
<path d="M29.1735 47.0077C29.0962 47.0999 29.0287 47.1999 28.972 47.3059C28.9689 47.3105 28.9673 47.3159 28.9673 47.3214C28.9673 47.3269 28.9689 47.3323 28.972 47.3368C28.9765 47.34 28.9819 47.3417 28.9874 47.3417C28.9929 47.3417 28.9983 47.34 29.0028 47.3368C29.0566 47.314 29.5402 47.1071 29.5563 46.958C29.5588 46.9443 29.5575 46.9302 29.5525 46.9172C29.5475 46.9041 29.5391 46.8927 29.5281 46.8841C29.5103 46.8676 29.4889 46.8555 29.4655 46.8487C29.4422 46.842 29.4176 46.8408 29.3938 46.8452C29.3045 46.8737 29.2271 46.9308 29.1735 47.0077V47.0077ZM29.0579 47.2616C29.1842 47.0521 29.3105 46.9191 29.4045 46.9029C29.4207 46.8998 29.4373 46.9005 29.4532 46.9049C29.469 46.9094 29.4837 46.9174 29.4959 46.9285C29.5 46.9315 29.5033 46.9356 29.5052 46.9403C29.5071 46.9451 29.5076 46.9503 29.5066 46.9553C29.4945 47.0359 29.2487 47.173 29.0579 47.2616V47.2616Z" fill="#263238"/>
<path d="M28.9746 47.3019C28.9708 47.3065 28.9685 47.3121 28.9679 47.318C28.9681 47.3226 28.9695 47.3271 28.9718 47.3311C28.9741 47.3351 28.9774 47.3385 28.9814 47.3409C28.9988 47.3516 29.4166 47.6015 29.5671 47.3825C29.6074 47.3234 29.5939 47.2858 29.5751 47.2643C29.4918 47.1689 29.1224 47.2267 28.9827 47.2952L28.9746 47.3019ZM29.512 47.3651C29.4085 47.486 29.1587 47.3758 29.0539 47.3221C29.2138 47.2656 29.4838 47.2415 29.5335 47.2992C29.5335 47.2992 29.5483 47.3153 29.5227 47.3516C29.5203 47.3566 29.5171 47.3611 29.5133 47.3651H29.512Z" fill="#263238"/>
<path d="M39.8665 46.5967C39.6072 46.2555 39.0766 45.7974 40.1768 45.4669C40.8324 45.2708 40.6067 46.3817 40.6067 46.3817L39.8665 46.5967Z" fill="#263238"/>
<path d="M41.0016 46.1238C40.8836 46.1484 40.7635 46.161 40.6429 46.1614C40.6376 46.1614 40.6324 46.1597 40.628 46.1566C40.6237 46.1535 40.6205 46.149 40.6188 46.144C40.6167 46.1388 40.6164 46.1332 40.6179 46.1278C40.6193 46.1225 40.6225 46.1178 40.6268 46.1144C40.6725 46.0781 41.0782 45.7544 41.2206 45.8027C41.2342 45.8074 41.2463 45.8156 41.2557 45.8265C41.2652 45.8373 41.2716 45.8504 41.2743 45.8645C41.2797 45.8877 41.2798 45.9118 41.2747 45.9351C41.2696 45.9583 41.2594 45.9801 41.2448 45.9989C41.1792 46.0656 41.094 46.1094 41.0016 46.1238V46.1238ZM40.7236 46.1063C40.968 46.0943 41.144 46.0432 41.2031 45.972C41.2134 45.9592 41.2205 45.9441 41.2237 45.9279C41.227 45.9118 41.2264 45.8952 41.2219 45.8793C41.2219 45.8632 41.2112 45.8578 41.2045 45.8565C41.1279 45.8269 40.8901 45.9787 40.7236 46.1063V46.1063Z" fill="#263238"/>
<path d="M40.6497 46.1614C40.644 46.1635 40.6378 46.1635 40.6322 46.1614C40.6278 46.1598 40.6241 46.1568 40.6214 46.153C40.6188 46.1492 40.6174 46.1446 40.6174 46.1399C40.6174 46.1184 40.5906 45.6335 40.8565 45.6026C40.9264 45.5945 40.9533 45.6241 40.964 45.651C41.0097 45.7692 40.784 46.0687 40.6591 46.1587L40.6497 46.1614ZM40.8458 45.655C40.69 45.6913 40.6698 45.9626 40.6685 46.0795C40.7934 45.9666 40.9371 45.7383 40.9143 45.6671C40.9143 45.6671 40.9062 45.6469 40.8619 45.6523L40.8458 45.655Z" fill="#263238"/>
<path d="M29.919 14.9716C29.7471 15.2201 29.4878 15.3357 29.34 15.2322C29.1923 15.1288 29.2057 14.8453 29.3817 14.5982C29.5577 14.351 29.8142 14.2341 29.962 14.3375C30.1098 14.441 30.091 14.7244 29.919 14.9716Z" fill="white"/>
</svg>
