<svg width="65" height="62" viewBox="0 0 65 62" fill="none" xmlns="http://www.w3.org/2000/svg">
<path d="M38.8271 25.5116C29.8389 22.2565 26.4771 -2.6843 13.3471 10.7422C4.03 20.2662 9.9515 43.8556 21.71 41.2712C28.8288 39.7019 27.7277 39.5172 33.8 44.067C39.9581 48.6751 46.7168 51.0348 53.1999 43.0801C56.5539 38.963 57.8058 28.8449 54.4765 23.5595C50.3204 16.9395 44.3183 27.5003 38.8271 25.5116Z" fill="#407BFF"/>
<path opacity="0.9" d="M38.8271 25.5116C29.8389 22.2565 26.4771 -2.6843 13.3471 10.7422C4.03 20.2662 9.9515 43.8556 21.71 41.2712C28.8288 39.7019 27.7277 39.5172 33.8 44.067C39.9581 48.6751 46.7168 51.0348 53.1999 43.0801C56.5539 38.963 57.8058 28.8449 54.4765 23.5595C50.3204 16.9395 44.3183 27.5003 38.8271 25.5116Z" fill="white"/>
<path d="M32.5 62C46.4207 62 57.7057 61.1566 57.7057 60.1162C57.7057 59.0758 46.4207 58.2323 32.5 58.2323C18.5793 58.2323 7.2943 59.0758 7.2943 60.1162C7.2943 61.1566 18.5793 62 32.5 62Z" fill="#F5F5F5"/>
<path d="M55.757 16.4852L55.3124 21.952H53.0868L52.6422 16.4852H55.757Z" fill="#263238"/>
<path opacity="0.3" d="M55.757 16.4852L55.3124 21.952H53.0868L52.6422 16.4852H55.757Z" fill="white"/>
<path d="M54.613 20.7771H53.7849V60.201H54.613V20.7771Z" fill="#263238"/>
<path opacity="0.3" d="M54.613 20.7771H53.7849V60.201H54.613V20.7771Z" fill="white"/>
<path d="M55.0784 21.6191H53.3208L52.9308 16.818H55.4684L55.0784 21.6191Z" fill="#407BFF"/>
<path opacity="0.4" d="M55.0784 21.6191H53.3208L52.9308 16.818H55.4684L55.0784 21.6191Z" fill="white"/>
<path d="M53.9682 21.694H53.8486L53.7186 16.6516H53.8382L53.9682 21.694Z" fill="#263238"/>
<path opacity="0.3" d="M53.9682 21.694H53.8486L53.7186 16.6516H53.8382L53.9682 21.694Z" fill="white"/>
<path opacity="0.2" d="M55.757 16.4852L55.3124 21.952H53.9136L53.7459 16.4852H55.757Z" fill="white"/>
<path d="M54.1996 14.7278C54.1996 14.7278 52.8788 16.392 51.8674 16.392L52.182 16.6566H56.212L56.5253 16.392C55.5191 16.3953 54.1996 14.7278 54.1996 14.7278Z" fill="#263238"/>
<path opacity="0.4" d="M56.5305 16.3953L56.2172 16.6583H52.1872L51.87 16.3953C52.8814 16.3953 54.2009 14.7312 54.2009 14.7312C54.2009 14.7312 55.5191 16.3953 56.5305 16.3953Z" fill="white"/>
<path opacity="0.2" d="M56.5305 16.3953L56.2172 16.6583H53.5964C53.5171 16.4918 53.4664 16.3737 53.4664 16.3737C54.1697 15.956 54.2048 14.7278 54.2048 14.7278C54.2048 14.7278 55.5191 16.3953 56.5305 16.3953Z" fill="white"/>
<path d="M53.4885 59.4721H54.9107C54.9959 59.4721 55.0775 59.5154 55.1378 59.5925C55.198 59.6696 55.2318 59.7742 55.2318 59.8832V60.201H53.17V59.8832C53.17 59.7747 53.2035 59.6707 53.2631 59.5937C53.3228 59.5167 53.4038 59.473 53.4885 59.4721Z" fill="#263238"/>
<path opacity="0.5" d="M53.4885 59.4721H54.9107C54.9959 59.4721 55.0775 59.5154 55.1378 59.5925C55.198 59.6696 55.2318 59.7742 55.2318 59.8832V60.201H53.17V59.8832C53.17 59.7747 53.2035 59.6707 53.2631 59.5937C53.3228 59.5167 53.4038 59.473 53.4885 59.4721Z" fill="white"/>
<path d="M31.2013 10.4077H14.2259C13.6637 10.4077 13.208 10.9911 13.208 11.7107V42.1516C13.208 42.8712 13.6637 43.4546 14.2259 43.4546H31.2013C31.7635 43.4546 32.2192 42.8712 32.2192 42.1516V11.7107C32.2192 10.9911 31.7635 10.4077 31.2013 10.4077Z" fill="#407BFF"/>
<path opacity="0.6" d="M31.2013 10.4077H14.2259C13.6637 10.4077 13.208 10.9911 13.208 11.7107V42.1516C13.208 42.8712 13.6637 43.4546 14.2259 43.4546H31.2013C31.7635 43.4546 32.2192 42.8712 32.2192 42.1516V11.7107C32.2192 10.9911 31.7635 10.4077 31.2013 10.4077Z" fill="white"/>
<path d="M25.2668 19.2693C25.2671 19.9158 25.1175 20.5479 24.8371 21.0856C24.5567 21.6233 24.1581 22.0425 23.6916 22.2901C23.2251 22.5378 22.7117 22.6027 22.2163 22.4768C21.7209 22.3509 21.2659 22.0397 20.9087 21.5827C20.5515 21.1257 20.3082 20.5433 20.2096 19.9092C20.1109 19.2752 20.1614 18.6179 20.3546 18.0206C20.5478 17.4233 20.8751 16.9127 21.295 16.5535C21.7149 16.1943 22.2086 16.0026 22.7136 16.0026C23.0489 16.0021 23.3809 16.0863 23.6908 16.2503C24.0006 16.4143 24.2822 16.6549 24.5193 16.9583C24.7564 17.2617 24.9445 17.622 25.0728 18.0186C25.201 18.4151 25.267 18.8401 25.2668 19.2693Z" fill="#407BFF"/>
<path opacity="0.7" d="M25.2668 19.2693C25.2671 19.9158 25.1175 20.5479 24.8371 21.0856C24.5567 21.6233 24.1581 22.0425 23.6916 22.2901C23.2251 22.5378 22.7117 22.6027 22.2163 22.4768C21.7209 22.3509 21.2659 22.0397 20.9087 21.5827C20.5515 21.1257 20.3082 20.5433 20.2096 19.9092C20.1109 19.2752 20.1614 18.6179 20.3546 18.0206C20.5478 17.4233 20.8751 16.9127 21.295 16.5535C21.7149 16.1943 22.2086 16.0026 22.7136 16.0026C23.0489 16.0021 23.3809 16.0863 23.6908 16.2503C24.0006 16.4143 24.2822 16.6549 24.5193 16.9583C24.7564 17.2617 24.9445 17.622 25.0728 18.0186C25.201 18.4151 25.267 18.8401 25.2668 19.2693Z" fill="white"/>
<path d="M22.7136 20.1314C23.2183 20.1314 23.6275 19.6076 23.6275 18.9615C23.6275 18.3153 23.2183 17.7915 22.7136 17.7915C22.2089 17.7915 21.7997 18.3153 21.7997 18.9615C21.7997 19.6076 22.2089 20.1314 22.7136 20.1314Z" fill="white"/>
<path d="M24.3347 21.8005C23.8779 22.2804 23.3052 22.5427 22.7142 22.5427C22.1233 22.5427 21.5506 22.2804 21.0938 21.8005C21.333 20.9035 21.8257 20.2412 22.4172 20.0731C22.6124 20.0176 22.8148 20.0176 23.01 20.0731C23.6028 20.2362 24.0942 20.8985 24.3347 21.8005Z" fill="white"/>
<path d="M27.8577 33.0469H17.5708C16.9842 33.0469 16.5087 33.6556 16.5087 34.4065V34.4082C16.5087 35.1591 16.9842 35.7678 17.5708 35.7678H27.8577C28.4443 35.7678 28.9198 35.1591 28.9198 34.4082V34.4065C28.9198 33.6556 28.4443 33.0469 27.8577 33.0469Z" fill="#407BFF"/>
<path d="M27.8577 23.8607H17.5708C16.9842 23.8607 16.5087 24.4695 16.5087 25.2204V25.222C16.5087 25.9729 16.9842 26.5817 17.5708 26.5817H27.8577C28.4443 26.5817 28.9198 25.9729 28.9198 25.222V25.2204C28.9198 24.4695 28.4443 23.8607 27.8577 23.8607Z" fill="white"/>
<path d="M27.8577 27.7183H17.5708C16.9842 27.7183 16.5087 28.327 16.5087 29.0779V29.0796C16.5087 29.8305 16.9842 30.4392 17.5708 30.4392H27.8577C28.4443 30.4392 28.9198 29.8305 28.9198 29.0796V29.0779C28.9198 28.327 28.4443 27.7183 27.8577 27.7183Z" fill="white"/>
<path opacity="0.2" d="M26.7358 24.5813V25.8594H28.1502V24.5813H26.7358ZM27.9188 24.7211L27.443 25.1372L26.9659 24.7211H27.9188ZM26.8437 25.7196V24.7827L27.443 25.3052L28.041 24.7827V25.7196H26.8437Z" fill="black"/>
<g opacity="0.2">
<path d="M27.7771 28.8666V28.7118C27.7768 28.6179 27.7475 28.528 27.6956 28.4616C27.6438 28.3952 27.5735 28.3578 27.5002 28.3573H27.3494C27.2761 28.3578 27.2058 28.3952 27.154 28.4616C27.1021 28.528 27.0728 28.6179 27.0725 28.7118V28.8666H26.845V29.9299H28.0397V28.8666H27.7771ZM27.1817 28.7118C27.1817 28.6548 27.1994 28.6002 27.2308 28.56C27.2623 28.5197 27.3049 28.4971 27.3494 28.4971H27.5002C27.5447 28.4971 27.5873 28.5197 27.6188 28.56C27.6502 28.6002 27.6679 28.6548 27.6679 28.7118V28.8666H27.1817V28.7118ZM27.9318 29.7902H26.9542V29.0063H27.9318V29.7902Z" fill="black"/>
<path d="M27.4118 29.4407V29.5672H27.4742V29.4407C27.4833 29.4339 27.4909 29.4242 27.4961 29.4125C27.5014 29.4009 27.5041 29.3876 27.5041 29.3741C27.5054 29.3628 27.5048 29.3512 27.5022 29.3402C27.4997 29.3292 27.4954 29.319 27.4895 29.3104C27.4837 29.3017 27.4764 29.2947 27.4683 29.29C27.4602 29.2852 27.4513 29.2827 27.4424 29.2827C27.4334 29.2827 27.4245 29.2852 27.4164 29.29C27.4083 29.2947 27.401 29.3017 27.3952 29.3104C27.3893 29.319 27.385 29.3292 27.3825 29.3402C27.3799 29.3512 27.3793 29.3628 27.3806 29.3741C27.3808 29.3877 27.3838 29.401 27.3893 29.4127C27.3948 29.4244 27.4025 29.434 27.4118 29.4407Z" fill="black"/>
</g>
<path d="M45.7158 15.0856H41.9809C41.6758 15.0856 41.3831 15.2408 41.1674 15.517C40.9516 15.7932 40.8304 16.1678 40.8304 16.5584V20.7188C40.8304 21.1094 40.9516 21.484 41.1674 21.7602C41.3831 22.0364 41.6758 22.1916 41.9809 22.1916H43.4577L43.8477 23.5046L44.2377 22.1916H45.7145C45.8655 22.1916 46.0151 22.1535 46.1546 22.0795C46.2941 22.0054 46.4208 21.8969 46.5276 21.7601C46.6343 21.6234 46.7189 21.461 46.7766 21.2823C46.8343 21.1036 46.8639 20.9122 46.8637 20.7188V16.5584C46.8639 16.3652 46.8343 16.1739 46.7767 15.9953C46.7191 15.8167 46.6346 15.6545 46.528 15.5177C46.4214 15.3809 46.2948 15.2724 46.1555 15.1983C46.0161 15.1241 45.8667 15.0859 45.7158 15.0856Z" fill="#407BFF"/>
<path opacity="0.7" d="M45.7158 15.0856H41.9809C41.6758 15.0856 41.3831 15.2408 41.1674 15.517C40.9516 15.7932 40.8304 16.1678 40.8304 16.5584V20.7188C40.8304 21.1094 40.9516 21.484 41.1674 21.7602C41.3831 22.0364 41.6758 22.1916 41.9809 22.1916H43.4577L43.8477 23.5046L44.2377 22.1916H45.7145C45.8655 22.1916 46.0151 22.1535 46.1546 22.0795C46.2941 22.0054 46.4208 21.8969 46.5276 21.7601C46.6343 21.6234 46.7189 21.461 46.7766 21.2823C46.8343 21.1036 46.8639 20.9122 46.8637 20.7188V16.5584C46.8639 16.3652 46.8343 16.1739 46.7767 15.9953C46.7191 15.8167 46.6346 15.6545 46.528 15.5177C46.4214 15.3809 46.2948 15.2724 46.1555 15.1983C46.0161 15.1241 45.8667 15.0859 45.7158 15.0856Z" fill="white"/>
<path d="M43.654 19.6804C43.6293 19.6804 43.6049 19.6736 43.5824 19.6604C43.56 19.6472 43.54 19.6279 43.524 19.6038L42.796 18.5071C42.7667 18.463 42.7523 18.4058 42.7559 18.348C42.7596 18.2903 42.781 18.2368 42.8155 18.1993C42.85 18.1617 42.8947 18.1433 42.9398 18.148C42.9849 18.1527 43.0267 18.1801 43.056 18.2242L43.654 19.1262L44.6407 17.6285C44.67 17.5843 44.7118 17.5569 44.7569 17.5522C44.802 17.5475 44.8467 17.566 44.8812 17.6035C44.9157 17.641 44.9371 17.6945 44.9408 17.7523C44.9444 17.81 44.93 17.8672 44.9007 17.9114L43.784 19.6038C43.7679 19.6277 43.7479 19.6469 43.7255 19.6601C43.7031 19.6733 43.6787 19.6802 43.654 19.6804Z" fill="white"/>
<path d="M45.1584 20.2982C45.8824 19.3714 45.8824 17.8689 45.1584 16.9421C44.4345 16.0154 43.2607 16.0153 42.5367 16.9421C41.8128 17.8689 41.8128 19.3714 42.5367 20.2982C43.2607 21.2249 44.4345 21.2249 45.1584 20.2982Z" fill="#407BFF"/>
<path d="M50.7897 60.201H51.6477L49.8927 47.5218H49.0347L50.7897 60.201Z" fill="#263238"/>
<path d="M31.9189 60.201H32.7782L31.0232 47.5218H30.1639L31.9189 60.201Z" fill="#263238"/>
<path opacity="0.3" d="M50.7897 60.201H51.6477L49.8927 47.5218H49.0347L50.7897 60.201Z" fill="white"/>
<path opacity="0.3" d="M31.9189 60.201H32.7782L31.0232 47.5218H30.1639L31.9189 60.201Z" fill="white"/>
<path d="M24.4517 54.9739L50.3412 54.9739V53.8606L24.4517 53.8606V54.9739Z" fill="#263238"/>
<path opacity="0.5" d="M24.4517 54.9739L50.3412 54.9739V53.8606L24.4517 53.8606V54.9739Z" fill="white"/>
<path d="M42.8727 60.201H42.0147L43.7697 47.5218H44.6277L42.8727 60.201Z" fill="#263238"/>
<path d="M24.0032 60.201H23.1439L24.8989 47.5218H25.7582L24.0032 60.201Z" fill="#263238"/>
<path opacity="0.3" d="M42.8727 60.201H42.0147L43.7697 47.5218H44.6277L42.8727 60.201Z" fill="white"/>
<path opacity="0.3" d="M24.0032 60.201H23.1439L24.8989 47.5218H25.7582L24.0032 60.201Z" fill="white"/>
<path d="M31.7876 47.0275H32.6417L34.0717 36.8512H33.2176L31.7876 47.0275Z" fill="#263238"/>
<path opacity="0.3" d="M31.7876 47.0275H32.6417L34.0717 36.8512H33.2176L31.7876 47.0275Z" fill="white"/>
<path d="M48.7513 47.0275H49.6054L51.0354 36.8512H50.1813L48.7513 47.0275Z" fill="#263238"/>
<path d="M40.2688 47.0275H41.1229L42.5529 36.8512H41.6988L40.2688 47.0275Z" fill="#263238"/>
<path opacity="0.3" d="M48.7513 47.0275H49.6054L51.0354 36.8512H50.1813L48.7513 47.0275Z" fill="white"/>
<path opacity="0.3" d="M40.2688 47.0275H41.1229L42.5529 36.8512H41.6988L40.2688 47.0275Z" fill="white"/>
<path d="M30.3121 37.5468H52.7462L53.014 35.643H30.5799L30.3121 37.5468Z" fill="#263238"/>
<path d="M29.8285 40.9916H52.2626L52.5304 39.0878H30.0963L29.8285 40.9916Z" fill="#263238"/>
<path d="M29.3436 44.4364H51.7777L52.0455 42.5326H29.6114L29.3436 44.4364Z" fill="#263238"/>
<path d="M22.9645 48.046L51.5554 48.046V46.728L22.9645 46.728V48.046Z" fill="#263238"/>
<path opacity="0.5" d="M30.3121 37.5468H52.7462L53.014 35.643H30.5799L30.3121 37.5468Z" fill="white"/>
<path opacity="0.5" d="M29.8285 40.9916H52.2626L52.5304 39.0878H30.0963L29.8285 40.9916Z" fill="white"/>
<path opacity="0.5" d="M29.3436 44.4364H51.7777L52.0455 42.5326H29.6114L29.3436 44.4364Z" fill="white"/>
<path opacity="0.5" d="M22.9645 48.046L51.5554 48.046V46.728L22.9645 46.728V48.046Z" fill="white"/>
<path opacity="0.2" d="M22.9645 48.046H44.5354V46.728H22.9645V48.046Z" fill="white"/>
<path d="M42.3267 33.1518C41.7222 33.9689 40.2727 35.9708 39.3757 35.9359C38.4293 35.8061 37.3711 33.9389 36.8667 32.9937C36.8253 32.9099 36.8086 32.81 36.8196 32.7119C36.8306 32.6139 36.8686 32.524 36.9268 32.4586C36.9849 32.3932 37.0594 32.3565 37.1368 32.3552C37.2142 32.3538 37.2895 32.3878 37.349 32.4511C37.9652 33.1068 38.8388 34.1336 39.4199 34.4332C39.3315 34.4332 39.3146 34.4565 39.3952 34.3916C40.1258 33.7259 40.7433 32.8239 41.3777 32.0151C41.9822 31.2613 42.874 32.328 42.3267 33.1518Z" fill="#E9B376"/>
<path d="M41.9965 31.6607V34.0454C41.9965 34.0454 41.6065 34.4648 41.119 34.9274C40.8772 35.1587 40.6133 35.4 40.3663 35.6047C39.9906 35.9176 39.6526 36.1472 39.481 36.1339C38.9688 36.094 37.8573 35.0772 37.8573 35.0772L38.5879 33.5195C38.5879 33.5195 39.4277 34.1769 39.481 34.2218C39.5343 34.2667 41.2958 31.6756 41.9965 31.6607Z" fill="#407BFF"/>
<path opacity="0.2" d="M41.119 34.9274C40.8772 35.1587 40.6133 35.4 40.3663 35.6047C40.4248 34.2368 40.9279 33.7109 40.9279 33.7109C41.0747 34.0876 41.1406 34.5074 41.119 34.9274Z" fill="black"/>
<path d="M42.7063 25.3901C41.8093 26.327 41.9159 29.023 42.9234 30.792C42.9234 30.792 45.0762 31.0233 46.2722 30.3377C47.4682 29.652 46.1422 25.2869 44.8825 24.9441C44.1391 24.7359 43.3617 24.8952 42.7063 25.3901Z" fill="#263238"/>
<path d="M42.7596 28.1909C42.4307 27.4653 42.1096 25.5066 43.4707 24.9025C45.1776 24.147 45.9407 25.5399 46.0902 26.9211C46.2397 28.3024 45.63 29.3458 44.5016 29.2426C43.3732 29.1395 42.9858 28.6935 42.7596 28.1909Z" fill="#263238"/>
<path d="M40.9266 33.7109C40.7602 34.7211 41.0566 37.1008 41.1008 38.8948L45.1204 39.4872C45.1204 38.9247 45.2023 38.1093 45.4649 36.8129C45.6144 36.0541 45.8302 35.1288 46.1253 33.9938C46.1682 33.8274 46.2137 33.661 46.2553 33.4763C46.3082 33.2982 46.3293 33.1073 46.3172 32.9174C46.3051 32.7275 46.26 32.5435 46.1853 32.3788C46.1105 32.2141 46.008 32.0728 45.8852 31.9653C45.7624 31.8577 45.6223 31.7866 45.4753 31.7572C45.3063 31.7222 45.1269 31.6923 44.9436 31.669C44.2969 31.5651 43.6452 31.5211 42.9936 31.5375C42.7817 31.5458 42.5607 31.5658 42.3501 31.5891C41.6 31.6707 41.08 32.7657 40.9266 33.7109Z" fill="#263238"/>
<path d="M44.9241 28.8582C44.7226 29.647 44.4535 31.0998 44.8383 31.6607C44.8383 31.6607 44.2507 31.5076 42.952 32.4162C42.6153 31.7239 42.8948 31.5292 42.8948 31.5292C43.6137 31.3628 43.6605 30.6971 43.602 30.0764L44.9241 28.8582Z" fill="#EBB376"/>
<path opacity="0.2" d="M44.3859 29.3541L43.6059 30.0747C43.6214 30.2219 43.6266 30.3706 43.6215 30.5191C43.8932 30.4874 44.2962 30.1396 44.3599 29.7868C44.3891 29.6458 44.3979 29.4992 44.3859 29.3541Z" fill="black"/>
<path d="M45.1932 27.016C45.2075 28.3323 45.2348 28.8898 44.7564 29.6121C44.0388 30.6988 42.7713 30.4325 42.4502 29.1478C42.1616 27.9829 42.1902 26.0308 43.16 25.4134C43.3738 25.2762 43.6114 25.2112 43.8504 25.2245C44.0893 25.2379 44.3217 25.3291 44.5253 25.4897C44.729 25.6502 44.8972 25.8747 45.0141 26.1418C45.131 26.4089 45.1926 26.7098 45.1932 27.016Z" fill="#FFB573"/>
<path d="M44.3209 25.7845C44.0362 26.2422 44.6849 27.6833 45.1971 27.928C46.1916 27.5086 45.1724 24.4182 44.3209 25.7845Z" fill="#263238"/>
<path d="M43.1028 25.1704C42.7245 25.3835 42.3696 26.2937 42.3228 26.6332C42.8857 26.6882 44.3352 25.8561 44.3352 25.8561C44.3352 25.8561 45.3557 26.0957 44.8071 25.5066C44.2585 24.9175 43.1028 25.1704 43.1028 25.1704Z" fill="#263238"/>
<path d="M43.4824 27.5519C43.4824 27.6584 43.4499 27.7482 43.3953 27.7549C43.3407 27.7615 43.2913 27.6767 43.2848 27.5702C43.2783 27.4637 43.3186 27.3738 43.3732 27.3671C43.4278 27.3605 43.4759 27.4454 43.4824 27.5519Z" fill="#263238"/>
<path d="M42.5399 27.6417C42.5399 27.7482 42.5074 27.8398 42.4528 27.8448C42.3982 27.8497 42.3488 27.7682 42.3423 27.6617C42.3358 27.5552 42.3761 27.4637 42.4307 27.4587C42.4853 27.4537 42.5334 27.5352 42.5399 27.6417Z" fill="#263238"/>
<path d="M42.4541 27.4587L42.25 27.4037C42.25 27.4037 42.3644 27.5968 42.4541 27.4587Z" fill="#263238"/>
<path d="M42.9403 27.7749C42.8788 28.0255 42.7914 28.2645 42.6803 28.4855C42.7252 28.52 42.7754 28.5415 42.8275 28.5487C42.8796 28.5559 42.9323 28.5485 42.9819 28.5271L42.9403 27.7749Z" fill="#ED893E"/>
<path d="M43.4629 28.9015C43.4227 28.9137 43.3819 28.922 43.3407 28.9265C43.3341 28.9265 43.3279 28.9231 43.3232 28.9172C43.3186 28.9113 43.316 28.9032 43.316 28.8948C43.316 28.8864 43.3186 28.8784 43.3232 28.8725C43.3279 28.8665 43.3341 28.8632 43.3407 28.8632C43.4448 28.8566 43.5463 28.8185 43.6367 28.7519C43.7271 28.6854 43.8039 28.5924 43.8607 28.4805C43.8622 28.4769 43.8642 28.4738 43.8667 28.4712C43.8691 28.4687 43.872 28.4669 43.875 28.4658C43.878 28.4647 43.8812 28.4644 43.8843 28.4649C43.8875 28.4654 43.8905 28.4668 43.8932 28.4688C43.8988 28.4727 43.903 28.4792 43.9049 28.4869C43.9068 28.4947 43.9064 28.5031 43.9036 28.5104C43.8545 28.6102 43.7901 28.6962 43.7144 28.7634C43.6387 28.8306 43.5531 28.8776 43.4629 28.9015Z" fill="#263238"/>
<path d="M45.5403 28.1909C45.513 28.3121 45.4672 28.4252 45.4056 28.5237C45.344 28.6223 45.2679 28.7043 45.1815 28.765C44.9501 28.9314 44.7759 28.6768 44.7915 28.3573C44.8058 28.0711 44.9436 27.6417 45.201 27.6118C45.257 27.6072 45.313 27.6205 45.364 27.6506C45.4149 27.6807 45.4592 27.7265 45.4929 27.784C45.5266 27.8414 45.5485 27.9087 45.5568 27.9798C45.5651 28.0508 45.5594 28.1234 45.5403 28.1909Z" fill="#FFB573"/>
<path d="M43.94 27.239C43.9298 27.2416 43.9192 27.2401 43.9097 27.2348C43.9001 27.2294 43.8921 27.2204 43.8867 27.209C43.7697 26.9611 43.4785 26.9311 43.4759 26.9311C43.4628 26.93 43.4506 26.9223 43.4419 26.9097C43.4333 26.897 43.4289 26.8805 43.4297 26.8637C43.4306 26.847 43.4366 26.8313 43.4465 26.8202C43.4564 26.8091 43.4693 26.8035 43.4824 26.8046C43.4967 26.8046 43.8282 26.8413 43.9712 27.1375C43.9779 27.1518 43.9799 27.169 43.9767 27.1852C43.9735 27.2014 43.9655 27.2154 43.9543 27.224L43.94 27.239Z" fill="#263238"/>
<path d="M42.3228 27.0809C42.3144 27.0835 42.3057 27.0832 42.2974 27.0799C42.2892 27.0767 42.2818 27.0707 42.276 27.0626C42.2714 27.0569 42.2677 27.05 42.2652 27.0424C42.2627 27.0349 42.2615 27.0267 42.2615 27.0185C42.2615 27.0103 42.2627 27.0021 42.2652 26.9946C42.2677 26.987 42.2714 26.9801 42.276 26.9744C42.3307 26.9033 42.3981 26.8503 42.4724 26.8199C42.5467 26.7894 42.6256 26.7825 42.7024 26.7997C42.7086 26.8015 42.7145 26.8049 42.7197 26.8097C42.7249 26.8145 42.7293 26.8205 42.7327 26.8275C42.7361 26.8344 42.7384 26.8421 42.7394 26.8502C42.7405 26.8583 42.7402 26.8666 42.7388 26.8745C42.7373 26.8825 42.7347 26.8901 42.7309 26.8967C42.7272 26.9034 42.7225 26.909 42.7171 26.9134C42.7116 26.9177 42.7056 26.9206 42.6993 26.9219C42.693 26.9233 42.6865 26.923 42.6803 26.9211C42.6193 26.9092 42.557 26.916 42.4985 26.9409C42.44 26.9657 42.3869 27.008 42.3436 27.0643C42.3377 27.0718 42.3306 27.0774 42.3228 27.0809Z" fill="#263238"/>
<path d="M43.3966 27.3721L43.1925 27.3172C43.1925 27.3172 43.3069 27.5069 43.3966 27.3721Z" fill="#263238"/>
<path d="M39.7436 32.2331L39.8411 32.6226C39.8591 32.6947 39.8903 32.7603 39.9321 32.8139C39.974 32.8675 40.0252 32.9074 40.0816 32.9304L40.6172 33.1501C40.7226 33.1937 40.8347 33.2041 40.944 33.1807C41.0532 33.1572 41.1565 33.1005 41.2451 33.0153L41.3556 32.9088C41.2256 32.2431 40.7121 31.654 40.7121 31.654L40.5821 31.4626C40.5556 31.4228 40.5233 31.3901 40.487 31.3663C40.4506 31.3425 40.411 31.3282 40.3703 31.324C40.3296 31.3198 40.2887 31.3259 40.2499 31.342C40.211 31.3581 40.1751 31.3838 40.144 31.4177L39.8463 31.7505C39.7942 31.8093 39.7566 31.8863 39.7384 31.9721C39.7201 32.0579 39.7219 32.1487 39.7436 32.2331Z" fill="#EBB376"/>
<path d="M36.14 32.5893L36.2375 32.9804C36.2559 33.0525 36.2874 33.1181 36.3294 33.1716C36.3715 33.2251 36.4228 33.2651 36.4793 33.2882L37.0136 33.5079C37.1191 33.551 37.2311 33.5613 37.3403 33.5379C37.4495 33.5144 37.5528 33.4579 37.6415 33.3731L37.7533 33.2666C37.6233 32.6009 37.1033 32.0101 37.1033 32.0101L36.9733 31.8204C36.9469 31.7802 36.9146 31.7471 36.8781 31.723C36.8417 31.699 36.8018 31.6844 36.7609 31.6802C36.7201 31.6761 36.6789 31.6823 36.6399 31.6987C36.601 31.715 36.5649 31.7411 36.5339 31.7755L36.2362 32.1083C36.1857 32.1682 36.1498 32.2453 36.1327 32.3307C36.1157 32.416 36.1182 32.5058 36.14 32.5893Z" fill="#EBB376"/>
<path opacity="0.2" d="M43.914 34.6795C44.174 35.6547 44.8331 36.3819 45.4649 36.8129C45.6144 36.0541 45.8302 35.1288 46.1253 33.9938C45.7288 33.2849 45.1737 32.7807 44.4665 32.9171C44.4665 32.9171 43.6527 33.6926 43.914 34.6795Z" fill="black"/>
<path d="M29.6491 54.027L30.3277 54.3781C30.3277 54.3781 36.0932 43.2449 36.6275 43.6626C38.5606 45.1787 42.5347 47.8879 44.4158 46.247C46.2969 44.6062 45.1802 40.281 45.1802 40.281C45.1802 40.281 41.522 38.6368 41.0696 39.6536C40.9503 39.957 40.8466 40.27 40.7589 40.5906C40.6653 40.9117 40.5925 41.183 40.5925 41.183C40.482 41.1164 36.8966 38.9081 35.2079 39.8184C33.4906 40.742 29.6491 54.027 29.6491 54.027Z" fill="#EBB376"/>
<path d="M42.1525 46.8412C42.1525 46.8412 40.339 46.9926 37.8547 45.9126C37.8547 45.9126 37.2424 54.7792 36.8303 59.592L35.9983 59.4422C35.9983 59.4422 34.5826 46.3053 34.8621 44.7044C35.1416 43.1035 36.66 42.9969 36.66 42.9969C36.66 42.9969 39.5551 45.7212 42.1525 46.8412Z" fill="#EBB376"/>
<path d="M42.1525 46.8412C40.9282 46.8603 39.7076 46.666 38.5242 46.2637L38.7608 45.0023C39.6747 45.7761 40.95 46.247 42.1525 46.8412Z" fill="#407BFF"/>
<path opacity="0.4" d="M42.1525 46.8412C40.9282 46.8603 39.7076 46.666 38.5242 46.2637L38.7608 45.0023C39.6747 45.7761 40.95 46.247 42.1525 46.8412Z" fill="white"/>
<path d="M38.6074 44.8741L38.3903 46.2787L38.7205 46.4234L38.9753 45.1837L38.6074 44.8741Z" fill="#407BFF"/>
<path opacity="0.6" d="M38.6074 44.8741L38.3903 46.2787L38.7205 46.4234L38.9753 45.1837L38.6074 44.8741Z" fill="white"/>
<path opacity="0.2" d="M35.1637 50.2876C35.0337 46.7929 34.9765 44.9889 35.4237 44.2684C35.719 43.823 36.1254 43.522 36.5742 43.4163C37.1566 45.3051 39.6942 46.4834 39.7644 46.515C40.7121 46.7663 42.1161 46.8312 42.1512 46.8478C40.937 46.5316 39.784 45.9093 38.7595 45.0172C38.028 44.4 37.3269 43.7259 36.66 42.9986C36.66 42.9986 35.1455 43.1034 34.866 44.7044C34.7516 45.36 34.9206 47.9428 35.1598 50.7702C35.168 50.6096 35.1693 50.4485 35.1637 50.2876Z" fill="black"/>
<path d="M28.9718 53.2964C28.9629 53.2701 28.9607 53.241 28.9653 53.2129C28.97 53.1849 28.9813 53.1594 28.9978 53.14C29.0083 53.123 29.0215 53.1091 29.0365 53.0991C29.0515 53.089 29.068 53.0831 29.0849 53.0818C29.1728 53.0871 29.2578 53.1234 29.3306 53.1866C29.2669 53.0801 29.2175 52.9653 29.2396 52.8937C29.2539 52.8471 29.2903 52.8222 29.3488 52.8222C29.3744 52.8212 29.3999 52.8274 29.4235 52.8404C29.4471 52.8533 29.4682 52.8726 29.4853 52.897C29.5984 53.0551 29.5737 53.4163 29.5737 53.4329C29.5744 53.4384 29.5744 53.444 29.5737 53.4495C29.5742 53.4523 29.5742 53.4551 29.5737 53.4579C29.5707 53.4586 29.5676 53.4586 29.5646 53.4579H29.5542C29.4327 53.4614 29.3112 53.4497 29.1915 53.4229C29.0836 53.4079 28.9978 53.3663 28.9718 53.2964ZM29.0901 53.16C29.0814 53.1603 29.0728 53.1629 29.065 53.1678C29.0571 53.1727 29.0502 53.1797 29.0446 53.1883C29.0147 53.2349 29.0225 53.2565 29.0251 53.2632C29.0563 53.343 29.2734 53.383 29.4567 53.3896C29.3514 53.2881 29.1863 53.1483 29.0901 53.16ZM29.3501 52.8987C29.3332 52.8987 29.3033 52.8987 29.2968 52.922C29.2786 52.9836 29.3904 53.175 29.5165 53.3414C29.5257 53.2034 29.4992 53.0654 29.4411 52.9486C29.4248 52.9249 29.4029 52.9085 29.3787 52.902L29.3501 52.8987Z" fill="#263238"/>
<path d="M35.1845 58.6817C35.1679 58.6624 35.1563 58.6371 35.1512 58.6092C35.1461 58.5812 35.1477 58.5519 35.1559 58.5252C35.1599 58.5042 35.1673 58.4845 35.1776 58.4673C35.1879 58.4501 35.2009 58.4358 35.2157 58.4254C35.2978 58.3813 35.3878 58.3675 35.4757 58.3854C35.3821 58.3239 35.3002 58.2473 35.2963 58.1708C35.2963 58.1208 35.321 58.0792 35.3704 58.046C35.3936 58.032 35.4189 58.0248 35.4445 58.0248C35.4701 58.0248 35.4954 58.032 35.5186 58.046C35.6746 58.1258 35.7786 58.4653 35.7786 58.4803C35.7798 58.4863 35.7798 58.4926 35.7786 58.4986C35.7777 58.5039 35.7754 58.5086 35.7721 58.5119L35.7656 58.5202C35.6167 58.6202 35.4552 58.6856 35.2885 58.7133C35.252 58.7186 35.2152 58.7074 35.1845 58.6817ZM35.2469 58.492C35.2389 58.497 35.2318 58.5042 35.2262 58.5131C35.2206 58.522 35.2165 58.5324 35.2144 58.5435C35.2027 58.6018 35.2144 58.6168 35.2222 58.6218C35.2768 58.6767 35.4822 58.5935 35.6538 58.4986C35.5251 58.4653 35.3288 58.4304 35.2469 58.492ZM35.3925 58.1159C35.3769 58.1258 35.3509 58.1441 35.3522 58.1658C35.3522 58.2307 35.5199 58.3422 35.6915 58.4221C35.6529 58.2933 35.5826 58.184 35.4913 58.1109C35.4774 58.103 35.4623 58.0991 35.4471 58.0992C35.4281 58.0991 35.4094 58.1048 35.3925 58.1159Z" fill="#263238"/>
<path d="M30.7554 54.0037C30.7931 53.8939 29.7154 53.3647 29.7154 53.3647C29.7154 53.3647 28.7755 53.8206 28.0852 53.6409C27.3949 53.4612 27.5652 54.1402 28.2672 54.5529L29.9858 55.568C30.4863 55.8592 30.3719 55.1387 30.7554 54.0037Z" fill="#263238"/>
<path d="M37.0331 58.3389C37.0331 58.219 35.8852 58.3305 35.8852 58.3305C35.8852 58.3305 35.1884 59.2591 34.5059 59.4755C33.8234 59.6918 34.2108 60.2127 34.9765 60.2011L36.8693 60.1711C37.4127 60.1628 37.0669 59.577 37.0331 58.3389Z" fill="#263238"/>
<path d="M45.1802 40.281C45.1802 40.281 41.522 38.6368 41.0696 39.6536C40.9509 39.9574 40.8471 40.2703 40.7589 40.5906C40.6653 40.9117 40.5925 41.183 40.5925 41.183L40.2922 41.0066L39.0676 45.6879C41.0176 47.0725 43.7697 47.2322 44.8981 46.2487C46.7753 44.6079 45.1802 40.281 45.1802 40.281Z" fill="#407BFF"/>
<g opacity="0.4">
<path d="M45.1802 40.281C45.1802 40.281 41.522 38.6368 41.0696 39.6536C40.9509 39.9574 40.8471 40.2703 40.7589 40.5906C40.6653 40.9117 40.5925 41.183 40.5925 41.183L40.2922 41.0066L39.0676 45.6879C41.0176 47.0725 43.7697 47.2322 44.8981 46.2487C46.7753 44.6079 45.1802 40.281 45.1802 40.281Z" fill="white"/>
</g>
<path opacity="0.3" d="M40.5925 41.183L42.7024 42.3296C42.7024 42.3296 41.6195 41.1647 40.7524 40.5906C40.6653 40.9117 40.5925 41.183 40.5925 41.183Z" fill="black"/>
<path d="M41.0176 39.7818L41.0917 38.6269L45.1802 39.3225L45.2335 40.4375L41.0176 39.7818Z" fill="#407BFF"/>
<path opacity="0.4" d="M41.0176 39.7818L41.0917 38.6269L45.1802 39.3225L45.2335 40.4375L41.0176 39.7818Z" fill="white"/>
<path d="M41.0995 38.74L41.314 38.78L41.2477 39.6803L41.0709 39.6536L41.0995 38.74Z" fill="#263238"/>
<path d="M41.5168 38.8166L43.8217 39.2459L43.7619 40.0647L41.4518 39.7119L41.5168 38.8166Z" fill="#263238"/>
<path d="M45.1802 40.281L43.9647 40.0963L44.0245 39.2842L45.1217 39.4872L45.1802 40.281Z" fill="#263238"/>
<path opacity="0.2" d="M41.0995 38.74L41.314 38.78L41.2477 39.6803L41.0709 39.6536L41.0995 38.74Z" fill="black"/>
<path opacity="0.2" d="M41.5168 38.8166L43.8217 39.2459L43.7619 40.0647L41.4518 39.7119L41.5168 38.8166Z" fill="black"/>
<path opacity="0.2" d="M45.1802 40.281L43.9647 40.0963L44.0245 39.2842L45.1217 39.4872L45.1802 40.281Z" fill="black"/>
<path d="M42.7375 40.0164H42.7128L42.0563 39.9049C42.032 39.9008 42.0086 39.8906 41.9874 39.8749C41.9662 39.8592 41.9477 39.8383 41.9328 39.8134C41.9176 39.7887 41.9064 39.7604 41.9 39.7301C41.8935 39.6998 41.8918 39.6681 41.8951 39.637L41.9536 39.0745C41.9563 39.0421 41.964 39.0107 41.9763 38.9821C41.9886 38.9536 42.0052 38.9284 42.0251 38.9081C42.0644 38.8699 42.114 38.8532 42.1629 38.8615L42.8194 38.973C42.8438 38.9769 42.8673 38.9869 42.8886 39.0025C42.9099 39.0181 42.9286 39.039 42.9436 39.0639C42.9586 39.0888 42.9696 39.1173 42.976 39.1477C42.9823 39.1781 42.9839 39.2098 42.9806 39.2409L42.9221 39.8034C42.9173 39.8618 42.8958 39.9159 42.8617 39.9552C42.8276 39.9945 42.7834 40.0163 42.7375 40.0164ZM42.1382 39.0312C42.1259 39.0314 42.1141 39.0366 42.1044 39.0462C42.0925 39.0582 42.0846 39.0754 42.0823 39.0945L42.0251 39.657C42.0238 39.6663 42.0241 39.6758 42.0259 39.685C42.0277 39.6942 42.031 39.7027 42.0355 39.7102C42.0448 39.7254 42.0583 39.7355 42.0732 39.7385L42.7297 39.85C42.7447 39.8524 42.7598 39.847 42.7717 39.8352C42.7837 39.8233 42.7914 39.8059 42.7934 39.7868L42.8519 39.2243C42.8534 39.2053 42.8493 39.1862 42.8402 39.171C42.8309 39.1558 42.8174 39.1457 42.8025 39.1427L42.146 39.0312H42.1382Z" fill="white"/>
<path d="M42.77 39.5704H42.7596L42.5282 39.5222C42.5198 39.5206 42.5117 39.5168 42.5044 39.5111C42.4972 39.5055 42.4909 39.498 42.4859 39.4891C42.4809 39.4803 42.4774 39.4703 42.4755 39.4596C42.4736 39.449 42.4734 39.438 42.4749 39.4273C42.4778 39.4056 42.4871 39.3863 42.5009 39.3732C42.5147 39.3602 42.532 39.3545 42.549 39.3574L42.7804 39.4057C42.7976 39.4074 42.8136 39.4179 42.8248 39.4348C42.8361 39.4516 42.8416 39.4735 42.8402 39.4955C42.8388 39.5176 42.8306 39.5381 42.8175 39.5524C42.8043 39.5668 42.7872 39.5739 42.77 39.5721V39.5704Z" fill="white"/>
<path d="M40.1154 40.6821L40.456 40.9118L39.3003 45.9408L38.8154 45.8177L40.1154 40.6821Z" fill="#407BFF"/>
<path opacity="0.6" d="M40.1154 40.6821L40.456 40.9118L39.3003 45.9408L38.8154 45.8177L40.1154 40.6821Z" fill="white"/>
<path d="M39.8424 35.6131H36.9824C36.928 35.6118 36.8758 35.585 36.8358 35.5377C36.7958 35.4905 36.7707 35.4261 36.7653 35.3568L36.3662 30.4891C36.3634 30.4566 36.3661 30.4236 36.374 30.3925C36.3819 30.3614 36.3949 30.3327 36.4121 30.3085C36.4293 30.2843 36.4504 30.265 36.4738 30.252C36.4973 30.2389 36.5226 30.2324 36.5482 30.2328H39.4082C39.4628 30.2341 39.5151 30.2608 39.5553 30.308C39.5955 30.3552 39.6209 30.4196 39.6266 30.4891L40.0244 35.3568C40.0274 35.3894 40.0249 35.4224 40.017 35.4537C40.0092 35.4849 39.9962 35.5137 39.979 35.5379C39.9617 35.5622 39.9406 35.5815 39.917 35.5945C39.8935 35.6074 39.868 35.6138 39.8424 35.6131Z" fill="#263238"/>
<path opacity="0.6" d="M39.8424 35.6131H36.9824C36.928 35.6118 36.8758 35.585 36.8358 35.5377C36.7958 35.4905 36.7707 35.4261 36.7653 35.3568L36.3662 30.4891C36.3634 30.4566 36.3661 30.4236 36.374 30.3925C36.3819 30.3614 36.3949 30.3327 36.4121 30.3085C36.4293 30.2843 36.4504 30.265 36.4738 30.252C36.4973 30.2389 36.5226 30.2324 36.5482 30.2328H39.4082C39.4628 30.2341 39.5151 30.2608 39.5553 30.308C39.5955 30.3552 39.6209 30.4196 39.6266 30.4891L40.0244 35.3568C40.0274 35.3894 40.0249 35.4224 40.017 35.4537C40.0092 35.4849 39.9962 35.5137 39.979 35.5379C39.9617 35.5622 39.9406 35.5815 39.917 35.5945C39.8935 35.6074 39.868 35.6138 39.8424 35.6131Z" fill="white"/>
<path opacity="0.2" d="M39.7228 35.6131H36.9785C36.9241 35.6118 36.8719 35.585 36.8319 35.5377C36.7919 35.4905 36.7668 35.4261 36.7614 35.3568L36.3623 30.4891C36.3595 30.4566 36.3622 30.4236 36.3701 30.3925C36.378 30.3614 36.391 30.3327 36.4082 30.3085C36.4254 30.2843 36.4465 30.265 36.4699 30.252C36.4934 30.2389 36.5187 30.2324 36.5443 30.2328H39.2886C39.343 30.2341 39.3952 30.2609 39.4352 30.3081C39.4752 30.3554 39.5003 30.4198 39.5057 30.4891L39.91 35.3485C39.9141 35.3823 39.9123 35.4168 39.9046 35.4496C39.8969 35.4824 39.8836 35.5126 39.8657 35.5379C39.8478 35.5633 39.8256 35.5832 39.8009 35.5962C39.7762 35.6092 39.7495 35.615 39.7228 35.6131Z" fill="white"/>
<path d="M38.0523 32.516C38.0126 32.5153 37.9732 32.5253 37.9368 32.5455C37.9004 32.5657 37.8677 32.5957 37.841 32.6333C37.8143 32.6709 37.7942 32.7154 37.782 32.7638C37.7698 32.8121 37.7658 32.8633 37.7702 32.9138C37.7782 33.0217 37.8169 33.1221 37.879 33.1957C37.9411 33.2694 38.0222 33.3112 38.1069 33.3132C38.1467 33.3137 38.1861 33.3035 38.2225 33.2831C38.2589 33.2627 38.2916 33.2326 38.3182 33.1948C38.3449 33.1571 38.365 33.1125 38.3772 33.064C38.3894 33.0156 38.3934 32.9644 38.389 32.9138C38.3046 32.9115 38.2238 32.8698 38.1618 32.7965C38.0998 32.7233 38.0608 32.6235 38.0523 32.516Z" fill="#263238"/>
<path opacity="0.3" d="M38.6724 30.6106H37.1592C37.122 30.6096 37.0858 30.5954 37.0545 30.5695C37.0233 30.5437 36.9983 30.5072 36.9824 30.4641L36.8914 30.2245H38.8882L38.8297 30.4641C38.8195 30.5071 38.7986 30.5447 38.7702 30.5711C38.7419 30.5976 38.7075 30.6114 38.6724 30.6106Z" fill="black"/>
<path d="M45.9758 41.7488H45.4441C45.4441 41.7488 44.7798 39.196 44.3924 37.0326C44.2843 36.4604 44.2014 35.8809 44.1441 35.2969C44.0885 34.6498 44.1327 33.9951 44.2741 33.3698C44.408 32.7512 44.6369 32.1729 44.9475 31.669L44.8396 31.6607C45.8458 31.6474 46.3892 32.0934 46.4568 32.8955C46.5244 33.6976 45.4168 38.4571 45.3596 39.0928C45.3024 39.7285 45.9758 41.7488 45.9758 41.7488Z" fill="#407BFF"/>
<path d="M42.5412 31.5708C42.5412 31.5708 41.4765 33.7176 41.1918 34.6295C40.9071 35.5415 41.0709 38.1542 41.0709 38.1542C41.0709 38.1542 40.5262 35.0106 40.8759 33.453C41.2256 31.8953 41.8327 31.5758 42.5412 31.5708Z" fill="#407BFF"/>
<path d="M46.1864 33.5062C45.6261 34.5347 44.2884 36.9494 43.1366 36.3836C42.5295 36.0291 42.0966 35.3851 41.6949 34.761C41.3449 34.1966 41.0314 33.5966 40.7576 32.967C40.713 32.8785 40.6964 32.7714 40.7113 32.6678C40.7261 32.5641 40.7713 32.4716 40.8375 32.409C40.9038 32.3465 40.9862 32.3186 41.0679 32.3311C41.1497 32.3435 41.2247 32.3954 41.2776 32.4761C41.6468 32.967 42.0316 33.4596 42.4151 33.9156C42.7492 34.3017 43.1782 34.8043 43.5656 34.9857C43.5386 34.9697 43.5095 34.9601 43.4798 34.9574C43.4577 34.9574 43.4629 34.9574 43.4798 34.9391C44.1298 34.3699 44.629 33.3914 45.1113 32.5776C45.6131 31.6906 46.6414 32.5776 46.189 33.5062H46.1864Z" fill="#E9B376"/>
<path opacity="0.2" d="M46.046 34.1153C46.046 34.1153 45.11 36.1589 44.3924 37.0259C44.2843 36.4538 44.2014 35.8743 44.1441 35.2902C44.0885 34.6431 44.1327 33.9884 44.2741 33.3631L45.0151 32.5809C45.383 32.1932 46.046 34.1153 46.046 34.1153Z" fill="black"/>
<path d="M46.1123 32.2315C46.6024 32.5643 46.4542 33.4746 45.812 34.5497C45.1698 35.6247 44.0076 37.0775 43.3966 36.8129C42.7856 36.5483 42.0966 35.5082 42.0966 35.5082L42.5425 33.8973C42.5425 33.8973 43.4174 34.7477 43.5994 34.7044C43.7814 34.6612 44.6732 33.1834 44.9306 32.7257C45.188 32.2681 45.5806 31.8637 46.1123 32.2315Z" fill="#407BFF"/>
<path d="M36.9759 32.3263L36.9577 32.6459C36.9525 32.7283 36.9257 32.8061 36.8815 32.8666C36.8374 32.927 36.7785 32.9665 36.7146 32.9787L36.3753 33.0436L36.4559 31.8787L36.7393 31.9419C36.809 31.957 36.8718 32.0047 36.9155 32.0757C36.9592 32.1468 36.9807 32.2361 36.9759 32.3263Z" fill="#FFB573"/>
</svg>
